<svg id="_4_copy" data-name="4 copy" xmlns="http://www.w3.org/2000/svg" width="1266" height="316" viewBox="0 0 1266 316">
  <defs>
    <style>
      .cls-1 {
        fill: #b3a533;
      }

      .cls-1, .cls-2, .cls-3, .cls-4, .cls-5, .cls-6, .cls-7, .cls-8, .cls-9 {
        fill-rule: evenodd;
      }

      .cls-2 {
        fill: #e11f6d;
      }

      .cls-3 {
        fill: #8b16c7;
      }

      .cls-4 {
        fill: #2b1ed0;
      }

      .cls-5 {
        fill: #0d9f11;
      }

      .cls-6 {
        fill: #7e7e7e;
      }

      .cls-7 {
        fill: #898888;
      }

      .cls-8 {
        fill: #581212;
      }

      .cls-9 {
        fill: #450e0e;
      }
    </style>
  </defs>
  <path id="_" data-name="&lt;" class="cls-1" d="M1114.57,168.961l42.18,1.818,14.22-22.7-70.2-1.026-12.05,19.24,31.62,62.591,14.39-22.957Z"/>
  <path id="_1" data-name="&lt; 1" class="cls-2" d="M1112.74,114.953l13.51-40-17.83-19.984-20.56,67.129,15.12,16.941,68.92-12.919L1153.87,105.9Z"/>
  <path id="_2" data-name="&lt; 2" class="cls-3" d="M1059.76,102.228l-35.08-23.5-23.95,11.982,59.41,37.4,20.31-10.158,5.56-69.9-24.23,12.12Z"/>
  <path id="_3" data-name="&lt; 3" class="cls-4" d="M1031.94,146.842l-36.725,20.831L995.2,194.455,1055.25,158.1l0.02-22.7-60-36.292-0.02,27.09Z"/>
  <path id="_4" data-name="&lt; 4" class="cls-5" d="M1064.01,186.162l6.21,41.762,24.98,9.658-12.3-69.118-21.18-8.187-55.46,42.92,25.27,9.769Z"/>
  <path id="_2-2" data-name="{" class="cls-6" d="M954.419,158.468a16.72,16.72,0,0,0-10.523,3.521,16.17,16.17,0,0,0-5.408,9.139q-1.34,5.786-1.425,20.878t-1.132,21.716a22.516,22.516,0,0,1-4.57,10.942,19.943,19.943,0,0,1-8.888,6.247q-3.688,1.341-11.906,1.342h-4.7V219.089h2.6q7.966,0,10.69-2.264t3.4-7.966q0.336-3.1.336-19.452,0-18.027,4.15-25.951a25.58,25.58,0,0,1,13.373-11.78q-7.8-3.772-11.445-8.636t-5.156-13.835q-0.923-5.786-.922-27.753,0-10.9-2.851-14.044t-11.571-3.144h-2.6V71.1h4.7a45.45,45.45,0,0,1,10.4.838A18.644,18.644,0,0,1,933.751,82.67,35.17,35.17,0,0,1,936.56,93.99q0.42,4.445.5,18.447t1.425,19.788a15.969,15.969,0,0,0,5.408,9.1,16.855,16.855,0,0,0,10.523,3.48v13.667Z"/>
  <path id="_3-2" data-name="{" class="cls-7" d="M73.626,159.468a16.72,16.72,0,0,1,10.523,3.521,16.171,16.171,0,0,1,5.408,9.139q1.34,5.786,1.425,20.878t1.132,21.716a22.511,22.511,0,0,0,4.57,10.942,19.941,19.941,0,0,0,8.888,6.247q3.689,1.341,11.906,1.342h4.7V220.089h-2.6q-7.966,0-10.69-2.264t-3.4-7.966q-0.336-3.1-.335-19.452,0-18.027-4.151-25.951a25.579,25.579,0,0,0-13.373-11.78q7.8-3.772,11.445-8.636t5.156-13.835q0.922-5.786.923-27.753,0-10.9,2.85-14.044t11.571-3.144h2.6V72.1h-4.7a45.45,45.45,0,0,0-10.4.838A18.642,18.642,0,0,0,94.295,83.67,35.136,35.136,0,0,0,91.486,94.99q-0.421,4.445-.5,18.447t-1.425,19.788a15.97,15.97,0,0,1-5.408,9.1,16.854,16.854,0,0,1-10.523,3.48v13.667Z"/>
  <path id="CODERS" class="cls-8" d="M204.579,126.125a35.976,35.976,0,0,0-15.983-3.967c-12.834,0-28.934,8.983-28.934,35.7,0,27.417,16.1,37.1,28.7,37.1,9.217,0,17.384-4.2,23.917-10.5V169.525h-7.233c0,10.967-4.434,18.9-16.334,18.9-15.633,0-21.467-16.8-21.467-29.984,0-13.534,5.484-29.751,21.7-29.751,12.133,0,14.816,7.117,15.283,17.851l6.884-1.167-0.584-8.867a27.48,27.48,0,0,1,2.1-12.25l-6.533-2.1Zm69.532,68.834c19.367,0,28-18.667,28-36.4s-8.634-36.4-28-36.4-28,18.667-28,36.4S254.744,194.959,274.111,194.959Zm0-6.533c-15.05,0-20.417-16.567-20.417-29.867s5.367-29.868,20.417-29.868,20.417,16.567,20.417,29.868S289.161,188.426,274.111,188.426Zm68.132-1.4-9.567.933,1.05,6.534,12.017-1.4c5.133-.584,10.384.466,15.634,0.466,15.633,0,28.467-8.867,28.467-34.534,0-24.5-14.234-35.467-31.151-35.467-5.366,0-9.8,1.4-14.35,1.4-3.733,0-7.35-.933-11.084-1.4l-0.233,5.483,9.217,1.984v56Zm7.233-56,8.4-.934c10.266-1.166,24.383,7,24.383,30.334,0,19.6-8.516,26.6-21.117,26.6H349.476v-56Zm129.383,62.534v-22.75h-7.233v2.217c0,12.95-.817,14-9.684,14H440.125V158.675h15.984v10.967h7.233v-27.3h-7.233v9.8H440.125V130.091h19.717c9.217,0,9.567,1.05,9.567,10.734v3.033h7.234v-20.3H421.225v6.533h11.667v56.935H421.225v6.533h57.634Zm93.566-6.533h-8.4l-17.967-26.484c9.217-2.683,15.167-8.983,15.167-18.9,0-12.834-10.734-18.084-22.284-18.084-5.95,0-12.017,1.4-17.967,1.4a45.794,45.794,0,0,1-10.733-1.4v6.183l9.566,1.167v56.118h-9.566v6.533h27.883v-6.533H527.041V161.709h11.317l21.234,31.85h12.833v-6.533Zm-45.384-56.118a109.385,109.385,0,0,1,12.017-.817c8.167,0,14.583,3.5,14.583,12.367,0,7.584-5.716,13.3-20.533,13.067l-6.067-.116v-24.5Zm125.3,44.334c0-26.134-37.684-15.867-37.684-34.65,0-8.867,8.984-11.9,15.4-11.9,5.25,0,10.15,1.284,12.367,5.367,1.516,2.917,1.4,7.584,1.633,10.85l7.117-1.05c-0.7-3.383-1.4-6.766-1.05-10.266l1.05-11.667-7-1.284-0.7,4.55a30.331,30.331,0,0,0-13.184-3.033c-11.317,0-23.217,6.3-23.217,18.9,0,25.551,37.684,14.117,37.684,34.884,0,8.867-8.283,12.484-15.167,12.484-10.85,0-15.517-4.2-16.567-12.484l-0.7-5.6-7,1.05c0.7,3.384,1.517,6.884,1.167,10.384l-1.167,12.367,7,0.933,0.35-4.317c5.6,2.917,9.917,4.2,16.334,4.2C642.19,194.959,652.34,187.026,652.34,175.242Z"/>
  <path id="tribe" class="cls-9" d="M677.289,174.518a3.37,3.37,0,0,1,.305.671q0.489,1.465.946,2.594c0.305,0.754.559,1.373,0.763,1.862q0.609-.917,1.1-1.526a9.457,9.457,0,0,0,.673-0.916q3.234-3.051,6.348-6.042a42.738,42.738,0,0,0,3.48-3.388,22.108,22.108,0,0,0,2.382-3.082l0.61-.366a0.7,0.7,0,0,1,.488.549q-0.732,1.649-1.4,3.113-0.431,2.381-.8,4.761-0.245,1.4-.428,2.441a10.061,10.061,0,0,0-.183,1.648,6.813,6.813,0,0,1-.367.855,18.375,18.375,0,0,0-.8,4.181q-0.244,2.6-.244,6.134a7.448,7.448,0,0,0,1.312,4.821,4.888,4.888,0,0,0,4,1.587,5.909,5.909,0,0,0,2.625-.7,10.332,10.332,0,0,0,2.868-2.288q1.1-1.16,2.167-2.381T705.3,186.6q1.1-1.1,2.014-1.923t1.526-1.5q1.524-1.038,2.624-1.953a17.5,17.5,0,0,0,1.709-1.587l-2.38-5.615q-4.091,3.478-6.378,5.249a10.556,10.556,0,0,1-2.655,1.77,1.008,1.008,0,0,1-.916-0.489,2.8,2.8,0,0,1-.3-1.465,32.75,32.75,0,0,1,.52-4.272q0.519-3.173,1.5-8.3,1.59-6.408,2.875-11.108t2.324-7.752q0.308-1.158.49-2.044t0.306-1.5l4.137-.854q0.729-.06,1.064-2.045a36.168,36.168,0,0,0,.335-5.646,5.825,5.825,0,0,0-.151-1.434,1.358,1.358,0,0,0-.51-0.824,4.662,4.662,0,0,1-.63-0.641,3.091,3.091,0,0,1-.33-0.519,16.28,16.28,0,0,1,.948-3.448,11.546,11.546,0,0,0,.825-3.693,4,4,0,0,0-.793-2.685,2.825,2.825,0,0,0-2.258-.916q-2.751,0-5.165,5.738t-4.554,5.981l-2.016-.61-1.68.335q-0.764.153-1.557,0.336a10.424,10.424,0,0,0-1.772-.305,27.559,27.559,0,0,0-2.809-.122q-0.8.183-1.71,0.366a26.057,26.057,0,0,0-2.658-.4,31.918,31.918,0,0,0-3.207-.152,2.729,2.729,0,0,0-2.535,2.075,16.884,16.884,0,0,0-.824,5.981,1.287,1.287,0,0,0,.4.946,2.83,2.83,0,0,0,1.13.641q0.488,0.245,1.007.458t1.129,0.519q0.487,0,1.617.061c0.753,0.041,1.291.061,1.618,0.061h7.629a5.438,5.438,0,0,0,1.251-.214,5.459,5.459,0,0,1,1.19-.213,0.844,0.844,0,0,1,.611.183,0.746,0.746,0,0,1,.183.549q-0.732,1.649-1.343,2.747a17.693,17.693,0,0,1-1.1,1.77A118.377,118.377,0,0,1,687.878,161a68.99,68.99,0,0,1-8.453,9.613q-0.792.977-1.373,1.709t-0.946,1.22l-0.245.489A1.666,1.666,0,0,1,677.289,174.518Zm34.729,2.35q0.61,1.373,1.1,2.777a5.139,5.139,0,0,0,.794-1.1l0.366-.732a24.367,24.367,0,0,0,3.235-2.5,10.462,10.462,0,0,0,1.77-2.075,10.935,10.935,0,0,0,2.319-1.892,45.948,45.948,0,0,0,3.174-3.6,25.657,25.657,0,0,1,3.235-3.357,17.954,17.954,0,0,1,2.93-2.075,3.867,3.867,0,0,1,3.021,1.953,9.866,9.866,0,0,1,1.007,4.944,28.78,28.78,0,0,1-.7,5.92,59.3,59.3,0,0,1-2.045,7.141,13.7,13.7,0,0,1-.732,1.679q-0.428.823-.794,1.617a14.987,14.987,0,0,0-.762,1.923,5.318,5.318,0,0,0-.275,1.556,2.654,2.654,0,0,0,1.282,2.472,7.67,7.67,0,0,0,3.845.763A11.086,11.086,0,0,0,737.591,191q4.638-2.807,7.966-4.974t5.4-3.693q0.977-.854,1.679-1.526t1.251-1.159q-0.611-1.587-1.282-2.991t-1.16-2.624a9.528,9.528,0,0,1-1.648,1.129,30.168,30.168,0,0,0-3.906,3.509,16.027,16.027,0,0,1-2.38,1.923,3.7,3.7,0,0,1-1.892.7,0.862,0.862,0,0,1-.58-0.183,0.61,0.61,0,0,1-.214-0.489,20.047,20.047,0,0,1,1.892-6.866,20.09,20.09,0,0,0,1.892-6.989,22.408,22.408,0,0,0-1.22-7.873,11.016,11.016,0,0,0-3.662-5.066q-0.306-.243-0.977-0.671-1.342-1.343-2.777-2.564a5.238,5.238,0,0,0-3.51-1.221q-1.953,0-5.1,2.076a11.74,11.74,0,0,0-3.937,3.6l0.611,2.929a26.962,26.962,0,0,1-4.12,6.317,55.346,55.346,0,0,1-7.294,7.05q-0.975,1.4-1.953,2.686Q711.407,175.494,712.018,176.868Zm39.795-2.35a3.37,3.37,0,0,1,.305.671q0.489,1.465.946,2.564t0.763,1.892a36.692,36.692,0,0,1,4.028-3.937,4.842,4.842,0,0,1,2.625-1.312,1.463,1.463,0,0,1,.915.7,14.335,14.335,0,0,1,1.282,2.1q0.609,0.916,1.1,1.587a8.688,8.688,0,0,1,.733,1.16q2.014,5.859,3.662,7.141t7.2,1.282a6.8,6.8,0,0,0,2.686-.885,31.442,31.442,0,0,0,4.272-2.716q2.258-1.648,3.876-2.9a27.724,27.724,0,0,0,2.594-2.228l-2.441-5.615q-0.978.793-1.984,1.617t-1.923,1.617a8.019,8.019,0,0,1-2.38,1.374,6.945,6.945,0,0,1-2.258.4,3.72,3.72,0,0,1-1.526-.274,1.838,1.838,0,0,1-.916-0.885,10.944,10.944,0,0,1-.915-2.838q-0.612-2.472-1.038-3.693-0.245-1.953-.61-3.876t-0.794-3.814a5.231,5.231,0,0,0-1.953-3.2,5.953,5.953,0,0,0-3.6-1.068,3.328,3.328,0,0,0-1.587.427,3.865,3.865,0,0,0-1.4,1.4,37.448,37.448,0,0,1-5.737,5.89,40.554,40.554,0,0,0-5.8,5.89l-0.183.61-0.367.428A1.681,1.681,0,0,1,751.813,174.518Zm22.827-48.371a5.259,5.259,0,0,0-1.587.7q-1.405,1.648-2.442,2.93-1.709.183-3.936,2.96t-2.228,4.608a9.61,9.61,0,0,0,.458,3.3,2.922,2.922,0,0,0,1.251,1.648q0.915,0,1.861.092T770,142.6a2.9,2.9,0,0,0,1.312-.335,13.463,13.463,0,0,0,2.35-1.374,10.3,10.3,0,0,0,2.289-1.8,7.591,7.591,0,0,0,1.5-2.35q0.243-.609.7-2.014t1.068-3.6q0.245-1.16.611-2.869a2.224,2.224,0,0,0-.7-1.77,3.357,3.357,0,0,0-2.228-.61A8.371,8.371,0,0,0,774.64,126.147Zm13,50.751q0.611,1.406,1.1,2.747l0.61-.611,0.427-.183,0.55,0.183a1.711,1.711,0,0,1,.274.58,3.181,3.181,0,0,1,.092.824,35.493,35.493,0,0,0,.549,6.043,49.364,49.364,0,0,0,1.77,6.9q0.977,0.854,1.8,1.5a9.491,9.491,0,0,0,1.556,1.007,6.956,6.956,0,0,0,1.74.824,5.756,5.756,0,0,0,1.556.214,8.136,8.136,0,0,0,3.51-.824,12.9,12.9,0,0,0,3.509-2.594q1.159-1.04,2.075-1.74t1.526-1.129q1.465-1.832,2.655-3.174t2.045-2.38q0.853,0.061,1.465.091t1.037,0.031a7.213,7.213,0,0,0,3.3-1.526,35.854,35.854,0,0,0,4.517-4.028,1.887,1.887,0,0,0-.122-0.641,3.366,3.366,0,0,0-.427-0.763q-0.612-1.343-1.13-2.38a12.159,12.159,0,0,1-.762-1.831,4.2,4.2,0,0,1-.763.61,3.709,3.709,0,0,1-.763.366,1.144,1.144,0,0,1-.489-0.793,17.8,17.8,0,0,1,1.526-3.479,12.8,12.8,0,0,0,1.526-5.677,3.7,3.7,0,0,0-.427-1.922,1.577,1.577,0,0,0-1.465-.7,5.076,5.076,0,0,0-1.16.213,4.975,4.975,0,0,1-1.159.214,10.339,10.339,0,0,1-1.465-.152,10.385,10.385,0,0,0-1.4-.153q-1.832,0-4.15,2.594a42.55,42.55,0,0,0-5.127,7.721,4.592,4.592,0,0,1-.214,1.1,4.422,4.422,0,0,0-.214.855q-0.245.793-.457,1.526a8.123,8.123,0,0,1-.519,1.343,2.623,2.623,0,0,0,.885,1.861,7.589,7.589,0,0,0,2.533,1.557,7.031,7.031,0,0,1-2.411,3.631,6.664,6.664,0,0,1-4.059,1.19,2.514,2.514,0,0,1-1.953-1.007,5.929,5.929,0,0,1-1.16-2.96q-0.366-1.464-.732-3.021t-0.671-3.143v-5.372a6.288,6.288,0,0,1,.732-2.624,23.664,23.664,0,0,1,2.2-3.54q2.563-3.846,4.3-6.836t2.777-5a3.3,3.3,0,0,0,.611-1.038v-1.4q0.487-.489.946-0.946l0.885-.885q0.183-.368,1.251-2.32t2.96-5.554q1.526-2.806,2.442-4.761a14.384,14.384,0,0,0,1.159-3.235q0.183-.609.977-3.082t2.258-6.622a55.068,55.068,0,0,0,1.526-5.4,20.862,20.862,0,0,0,.549-4.486,10.117,10.117,0,0,0-.915-4.852,2.875,2.875,0,0,0-2.625-1.618,8.539,8.539,0,0,0-2.228.306,15.413,15.413,0,0,0-2.227.793q-1.955.977-4.212,2.014-0.793.8-1.4,1.5t-1.159,1.312a64.715,64.715,0,0,0-4.486,7.6,87.383,87.383,0,0,0-4.242,9.918q-0.245.855-1.77,5.585T794.6,148.578q-0.428,1.587-.946,4.181t-0.946,6.073q-0.366,3.418-.885,5.951a31.993,31.993,0,0,1-1.129,4.242q-1.588,1.708-2.625,2.929t-1.77,2.076Q787.03,175.494,787.64,176.9Zm26.734-51.575a3.92,3.92,0,0,1-.55.977q-0.427.732-1.037,1.77-0.857,2.686-1.526,4.883T810.1,136.8q-0.183.672-1.007,2.686t-2.533,5.554q-1.832,4.028-2.96,6.164a6.979,6.979,0,0,1-1.617,2.381l-0.123-.55a16.4,16.4,0,0,1,.672-4.028,44.563,44.563,0,0,1,2.075-5.8q1.1-2.806,2.2-5.219a45.658,45.658,0,0,1,2.259-4.364q1.341-2.257,2.2-3.906a11.268,11.268,0,0,0,1.1-2.869,11.313,11.313,0,0,1,.916-2.533,1.157,1.157,0,0,1,.855-0.824,1.01,1.01,0,0,1,.335.4,1.32,1.32,0,0,1,.092.519A2.611,2.611,0,0,1,814.374,125.323Zm10.009,52.063a15.005,15.005,0,0,1,.855,2.259,7.828,7.828,0,0,1,1.343-1.374,1.9,1.9,0,0,1,1.1-.457,1.383,1.383,0,0,1,1.1.641,9.149,9.149,0,0,1,1.038,1.983q0.67,1.649,1.281,2.838a7.2,7.2,0,0,0,1.221,1.8,7.448,7.448,0,0,0,2.9,1.953,11.043,11.043,0,0,0,4,.671,13.971,13.971,0,0,0,2.96-.274,6.994,6.994,0,0,0,2.228-.885,10.156,10.156,0,0,0,5.218-1.74,36.872,36.872,0,0,0,6.318-5.157q-0.367-1.038-.977-2.442t-1.4-3.173a7.285,7.285,0,0,1-1.343.885q-0.672.336-.976,0.518a18.131,18.131,0,0,1-3.479,1.465,19.554,19.554,0,0,1-4.334.794,21.245,21.245,0,0,1-2.533-.672,5.876,5.876,0,0,1-1.556-.732,3.183,3.183,0,0,1-1.312-1.465,5.266,5.266,0,0,1-.458-2.258,3.149,3.149,0,0,1,.3-1.374,3.781,3.781,0,0,1,.733-1.068,89.591,89.591,0,0,0,8.056-8.789,21.476,21.476,0,0,0,3.845-6.775l0.55-1.953q0.426-1.464.641-2.136t0.213-.305q-0.245-1.465-.427-2.686a19.587,19.587,0,0,0-.763-2.38,5.308,5.308,0,0,0-.824-1.465,3.314,3.314,0,0,0-1.556-1.038,8.274,8.274,0,0,0-2.472-.305,10.286,10.286,0,0,0-2.014.183,13.669,13.669,0,0,0-1.648.428,18.731,18.731,0,0,1-1.587,1.1,13.339,13.339,0,0,0-1.465,1.038q-1.406,1.708-2.808,3.387t-2.685,3.083a47.748,47.748,0,0,0-2.472,4.516q-0.948,2.014-1.5,3.357-0.489,1.344-.885,2.5a17.884,17.884,0,0,0-.579,2.014,23.432,23.432,0,0,1-.245,2.411q-0.183,1.19-.366,2.41a22.881,22.881,0,0,0-2.929,2.717,15.808,15.808,0,0,0-1.893,2.594Q823.774,176.043,824.383,177.386Zm18.586-22.857a1.633,1.633,0,0,1,.213.885,4.31,4.31,0,0,1-.366,1.709,6.7,6.7,0,0,1-1.1,1.709q-0.611.672-1.251,1.373t-1.312,1.312q-0.366.612-.794,1.313a1.26,1.26,0,0,1-1.1.7,0.941,0.941,0,0,1-.641-0.152,0.717,0.717,0,0,1-.153-0.519q0-1.649,2.259-5.157t3.6-3.51A0.713,0.713,0,0,1,842.969,154.529Z"/>
</svg>
