<?xml version="1.0" encoding="UTF-8" standalone="no"?>
<svg
   xmlns:dc="http://purl.org/dc/elements/1.1/"
   xmlns:cc="http://creativecommons.org/ns#"
   xmlns:rdf="http://www.w3.org/1999/02/22-rdf-syntax-ns#"
   xmlns:svg="http://www.w3.org/2000/svg"
   xmlns="http://www.w3.org/2000/svg"
   xmlns:sodipodi="http://sodipodi.sourceforge.net/DTD/sodipodi-0.dtd"
   xmlns:inkscape="http://www.inkscape.org/namespaces/inkscape"
   inkscape:version="1.0 (4035a4fb49, 2020-05-01)"
   sodipodi:docname="LogoEnd.svg"
   version="1.1"
   viewBox="0 0 216 240"
   height="240"
   width="216"
   data-name="4 copy"
   id="_4_copy">
  <metadata
     id="metadata18">
    <rdf:RDF>
      <cc:Work
         rdf:about="">
        <dc:format>image/svg+xml</dc:format>
        <dc:type
           rdf:resource="http://purl.org/dc/dcmitype/StillImage" />
      </cc:Work>
    </rdf:RDF>
  </metadata>
  <sodipodi:namedview
     inkscape:current-layer="_4_copy"
     inkscape:window-maximized="1"
     inkscape:window-y="-11"
     inkscape:window-x="-11"
     inkscape:cy="120"
     inkscape:cx="142.16319"
     inkscape:zoom="3.3333333"
     showgrid="false"
     id="namedview16"
     inkscape:window-height="986"
     inkscape:window-width="1920"
     inkscape:pageshadow="2"
     inkscape:pageopacity="0"
     guidetolerance="10"
     gridtolerance="10"
     objecttolerance="10"
     borderopacity="1"
     bordercolor="#666666"
     pagecolor="#ffffff" />
  <defs
     id="defs4">
    <style
       id="style2">
      .cls-1 {
        fill: #b3a533;
      }

      .cls-1, .cls-2, .cls-3, .cls-4, .cls-5, .cls-6, .cls-7, .cls-8, .cls-9 {
        fill-rule: evenodd;
      }

      .cls-2 {
        fill: #e11f6d;
      }

      .cls-3 {
        fill: #8b16c7;
      }

      .cls-4 {
        fill: #2b1ed0;
      }

      .cls-5 {
        fill: #0d9f11;
      }

      .cls-6 {
        fill: #7e7e7e;
      }

      .cls-7 {
        fill: #898888;
      }

      .cls-8 {
        fill: #581212;
      }

      .cls-9 {
        fill: #450e0e;
      }
    </style>
  </defs>
  <path
     d="M143.569,145.961l42.182,1.818,14.221-22.7-70.2-1.026L117.719,143.3l31.623,62.591,14.384-22.957Z"
     class="cls-1"
     data-name="&lt;"
     id="_" />
  <path
     d="M141.744,91.953l13.506-40L137.419,31.966,116.863,99.094l15.116,16.941L200.9,103.116,182.868,82.9Z"
     class="cls-2"
     data-name="&lt; 1"
     id="_1" />
  <path
     d="M88.759,79.228l-35.077-23.5L29.729,67.709l59.413,37.4,20.3-10.158,5.563-69.9L90.781,37.168Z"
     class="cls-3"
     data-name="&lt; 2"
     id="_2" />
  <path
     d="M60.941,123.842L24.215,144.673,24.2,171.455,84.253,135.1l0.016-22.7-60-36.292-0.02,27.09Z"
     class="cls-4"
     data-name="&lt; 3"
     id="_3" />
  <path
     d="M93.007,163.162l6.216,41.762,24.981,9.658L111.9,145.464,90.72,137.277,35.263,180.2l25.268,9.769Z"
     class="cls-5"
     data-name="&lt; 4"
     id="_4" />
  <path
     d="M-897.374,136.468a16.72,16.72,0,0,1,10.523,3.521,16.17,16.17,0,0,1,5.408,9.139q1.341,5.786,1.425,20.878t1.132,21.716a22.516,22.516,0,0,0,4.57,10.942,19.943,19.943,0,0,0,8.888,6.247q3.688,1.341,11.906,1.342h4.7V197.089h-2.6q-7.966,0-10.69-2.264t-3.4-7.966q-0.336-3.1-.335-19.452,0-18.027-4.151-25.951a25.58,25.58,0,0,0-13.373-11.78q7.8-3.772,11.445-8.636t5.156-13.835q0.923-5.785.923-27.753,0-10.9,2.85-14.044t11.571-3.144h2.6V49.1h-4.7a45.45,45.45,0,0,0-10.4.839,20.466,20.466,0,0,0-7.714,3.9,20.32,20.32,0,0,0-5.073,6.834,35.146,35.146,0,0,0-2.808,11.319q-0.421,4.445-.5,18.446t-1.425,19.788a15.969,15.969,0,0,1-5.408,9.1,16.855,16.855,0,0,1-10.523,3.48v13.667Z"
     class="cls-7"
     data-name="{"
     id="_3-2" />
</svg>
