<?xml version="1.0" encoding="UTF-8" standalone="no"?>
<svg
   xmlns:dc="http://purl.org/dc/elements/1.1/"
   xmlns:cc="http://creativecommons.org/ns#"
   xmlns:rdf="http://www.w3.org/1999/02/22-rdf-syntax-ns#"
   xmlns:svg="http://www.w3.org/2000/svg"
   xmlns="http://www.w3.org/2000/svg"
   xmlns:sodipodi="http://sodipodi.sourceforge.net/DTD/sodipodi-0.dtd"
   xmlns:inkscape="http://www.inkscape.org/namespaces/inkscape"
   id="_4_copy"
   data-name="4 copy"
   width="216"
   height="240"
   viewBox="0 0 216 240"
   version="1.1"
   sodipodi:docname="LogoEnd - equal.svg"
   inkscape:version="1.0 (4035a4fb49, 2020-05-01)">
  <metadata
     id="metadata18">
    <rdf:RDF>
      <cc:Work
         rdf:about="">
        <dc:format>image/svg+xml</dc:format>
        <dc:type
           rdf:resource="http://purl.org/dc/dcmitype/StillImage" />
      </cc:Work>
    </rdf:RDF>
  </metadata>
  <sodipodi:namedview
     inkscape:document-rotation="0"
     pagecolor="#ffffff"
     bordercolor="#666666"
     borderopacity="1"
     objecttolerance="10"
     gridtolerance="10"
     guidetolerance="10"
     inkscape:pageopacity="0"
     inkscape:pageshadow="2"
     inkscape:window-width="1920"
     inkscape:window-height="986"
     id="namedview16"
     showgrid="false"
     inkscape:zoom="3.3333333"
     inkscape:cx="142.16319"
     inkscape:cy="120"
     inkscape:window-x="-11"
     inkscape:window-y="-11"
     inkscape:window-maximized="1"
     inkscape:current-layer="_4_copy" />
  <defs
     id="defs4">
    <style
       id="style2">
      .cls-1 {
        fill: #b3a533;
      }

      .cls-1, .cls-2, .cls-3, .cls-4, .cls-5, .cls-6, .cls-7, .cls-8, .cls-9 {
        fill-rule: evenodd;
      }

      .cls-2 {
        fill: #e11f6d;
      }

      .cls-3 {
        fill: #8b16c7;
      }

      .cls-4 {
        fill: #2b1ed0;
      }

      .cls-5 {
        fill: #0d9f11;
      }

      .cls-6 {
        fill: #7e7e7e;
      }

      .cls-7 {
        fill: #898888;
      }

      .cls-8 {
        fill: #581212;
      }

      .cls-9 {
        fill: #450e0e;
      }
    </style>
  </defs>
  <path
     id="_"
     data-name="&lt;"
     class="cls-1"
     d="m 149.569,147.961 42.182,1.818 14.221,-22.7 -70.2,-1.026 -12.053,19.247 31.623,62.591 14.384,-22.957 z" />
  <path
     id="_1"
     data-name="&lt; 1"
     class="cls-2"
     d="m 147.744,87.953 13.506,-40 -17.831,-19.987 -20.556,67.128 15.116,16.941 L 206.9,99.116 188.868,78.9 Z" />
  <path
     id="_2"
     data-name="&lt; 2"
     class="cls-3"
     d="M 93.072347,73.005978 61.01771,45.526054 35.816878,54.592951 90.394684,98.75094 111.75271,91.06265 125.53581,22.30959 100.0498,31.479514 Z" />
  <path
     id="_3"
     data-name="&lt; 3"
     class="cls-4"
     d="M 58.939724,117.63738 22.866298,139.57907 23.66833,166.34906 82.584316,128.17897 81.907812,105.48905 20.828596,71.044331 21.635026,98.12233 Z" />
  <path
     id="_4"
     data-name="&lt; 4"
     class="cls-5"
     d="m 92.849717,163.00047 6.726748,41.68278 25.097355,9.35148 -13.14916,-68.9622 -21.278633,-7.92712 -54.927419,43.59864 25.38569,9.45896 z" />
  <path
     id="_3-2"
     data-name="{"
     class="cls-7"
     d="M-897.374,136.468a16.72,16.72,0,0,1,10.523,3.521,16.17,16.17,0,0,1,5.408,9.139q1.341,5.786,1.425,20.878t1.132,21.716a22.516,22.516,0,0,0,4.57,10.942,19.943,19.943,0,0,0,8.888,6.247q3.688,1.341,11.906,1.342h4.7V197.089h-2.6q-7.966,0-10.69-2.264t-3.4-7.966q-0.336-3.1-.335-19.452,0-18.027-4.151-25.951a25.58,25.58,0,0,0-13.373-11.78q7.8-3.772,11.445-8.636t5.156-13.835q0.923-5.785.923-27.753,0-10.9,2.85-14.044t11.571-3.144h2.6V49.1h-4.7a45.45,45.45,0,0,0-10.4.839,20.466,20.466,0,0,0-7.714,3.9,20.32,20.32,0,0,0-5.073,6.834,35.146,35.146,0,0,0-2.808,11.319q-0.421,4.445-.5,18.446t-1.425,19.788a15.969,15.969,0,0,1-5.408,9.1,16.855,16.855,0,0,1-10.523,3.48v13.667Z" />
  <text
     transform="scale(0.84501481,1.1834112)"
     id="text15"
     y="115.35649"
     x="112.40115"
     style="font-style:normal;font-weight:normal;font-size:29.9534px;line-height:1.25;font-family:sans-serif;fill:#000000;fill-opacity:1;stroke:none;stroke-width:0.748835"
     xml:space="preserve"><tspan
       style="font-style:normal;font-variant:normal;font-weight:normal;font-stretch:normal;font-size:55.913px;font-family:'Blackoak Std';-inkscape-font-specification:'Blackoak Std';fill:#ff6600;stroke-width:0.748835"
       y="115.35649"
       x="112.40115"
       id="tspan13"
       sodipodi:role="line">=</tspan></text>
</svg>
